PathFileType	4	(X/Y/Z)	C:/Users/opensim2020/Desktop/walking_exp_matlab/subject06_walking17_straight_02.trc	
DataRate	CameraRate	NumFrames	NumMarkers	Units	OrigDataRate	OrigDataStartFrame	OrigNumFrames	
100.00	100.00	5	45	mm	100.00	2324	334	
Frame#	Time	LFHD			RFHD			LBHD			RBHD			C7			T10			CLAV			STRN			RBAK			LSHO			LUPA			LELB			LFRM			LWRA			LWRB			LFIN			RSHO			RUPA			RELB			RFRM			RWRA			RWRB			RFIN			LASI			RASI			LPSI			RPSI			LTHI			LKNE			LTIB			LANK			LHEE			LTOE			RTHI			RKNE			RTIB			RANK			RHEE			RTOE			*39			*40			*41			*42			*43			*44			
		X1	Y1	Z1	X2	Y2	Z2	X3	Y3	Z3	X4	Y4	Z4	X5	Y5	Z5	X6	Y6	Z6	X7	Y7	Z7	X8	Y8	Z8	X9	Y9	Z9	X10	Y10	Z10	X11	Y11	Z11	X12	Y12	Z12	X13	Y13	Z13	X14	Y14	Z14	X15	Y15	Z15	X16	Y16	Z16	X17	Y17	Z17	X18	Y18	Z18	X19	Y19	Z19	X20	Y20	Z20	X21	Y21	Z21	X22	Y22	Z22	X23	Y23	Z23	X24	Y24	Z24	X25	Y25	Z25	X26	Y26	Z26	X27	Y27	Z27	X28	Y28	Z28	X29	Y29	Z29	X30	Y30	Z30	X31	Y31	Z31	X32	Y32	Z32	X33	Y33	Z33	X34	Y34	Z34	X35	Y35	Z35	X36	Y36	Z36	X37	Y37	Z37	X38	Y38	Z38	X39	Y39	Z39	X40	Y40	Z40	X41	Y41	Z41	X42	Y42	Z42	X43	Y43	Z43	X44	Y44	Z44	X45	Y45	Z45	

168	1.670	1556.04175	140.96344	1672.36621	1425.47852	156.64767	1658.06763	1573.25403	273.36133	1618.42151	1444.83411	287.99585	1609.86865	1513.77832	281.40945	1459.53101	1491.35645	319.10068	1131.54272	1504.16174	173.62158	1380.52417	1502.92419	137.09351	1203.79248	1429.13074	358.98120	1292.96277	1668.42480	216.84714	1407.74097	1744.85071	181.71902	1210.63562	1760.94727	154.70966	1100.93616	1769.69812	68.21100	976.68030	1710.21155	-27.29118	901.81464	1754.13843	17.65256	868.98895	1744.43689	-55.58931	817.23053	1346.75281	222.51810	1418.57507	1255.86853	260.87442	1221.39795	1242.18591	251.78363	1099.86328	1222.17810	235.32239	980.95880	1250.40369	173.03983	841.99316	1210.40210	227.54860	843.66724	1206.86499	189.94283	767.92310	1590.79541	140.78970	968.95490	1368.88684	143.89937	981.51447	1562.67090	299.51755	996.39777	1394.68494	294.29172	999.96118	1636.51013	221.78294	655.77600	1612.10474	237.00420	492.04352	1593.84399	292.52484	240.38788	1540.31934	300.93127	69.40749	1494.07275	340.30545	56.63221	1538.62537	155.84177	40.87668	1298.97461	130.89090	653.43481	1321.49829	86.27341	534.45050	1323.95154	112.91524	273.24527	1363.85583	111.94844	86.61423	1414.11047	143.75507	59.38171	1351.00903	-39.56952	54.95006	1507.89587	247.53052	1709.41541															 
169	1.680	1555.75916	134.70328	1671.95728	1425.06262	150.95230	1657.59985	1573.05835	267.45697	1618.08533	1444.61963	282.26956	1609.54395	1513.53943	275.69623	1459.13342	1491.44751	313.50128	1131.14331	1503.91235	168.03397	1380.11621	1502.78992	131.44327	1203.43262	1429.18689	353.42331	1292.44568	1668.23914	211.19740	1407.47107	1744.59399	176.62241	1210.25110	1760.45813	149.44119	1100.40161	1768.75110	61.54296	977.13251	1709.86206	-36.18069	904.88910	1751.94263	9.41520	870.47351	1742.72998	-64.68124	819.75598	1346.53162	217.21899	1418.07935	1255.57214	256.27982	1221.01563	1242.10291	247.33925	1099.36157	1222.26709	231.07100	980.46362	1250.33374	168.93570	841.38379	1210.51343	223.53639	843.14575	1206.90100	186.10834	767.36102	1590.96741	135.34267	968.37659	1369.15369	138.45090	980.86902	1562.82874	294.04691	996.04993	1394.83423	288.65781	999.61108	1636.58411	217.51979	655.30646	1612.08655	233.51530	491.64011	1593.82080	290.72971	240.29369	1540.07910	300.49475	69.46369	1493.83740	340.13190	56.92328	1538.52625	155.61319	40.76530	1298.50171	126.71689	652.62628	1321.55908	81.95854	533.68317	1323.72839	100.18600	271.99002	1363.32727	92.74550	85.41247	1412.24500	125.26483	57.95227	1353.38977	-59.88190	56.47063	1507.66211	241.66032	1709.06311															 
170	1.690	1555.15076	128.95439	1671.38098	1424.60645	145.24593	1657.07568	1572.81665	261.51959	1617.70374	1444.39355	276.52792	1609.13025	1513.18640	270.00311	1458.67651	1491.32605	307.81104	1130.68420	1503.64905	162.32054	1379.66479	1502.64038	125.79766	1203.01477	1429.25342	347.85880	1291.85938	1667.99377	205.54776	1407.16553	1744.22949	171.68715	1209.78088	1759.71240	144.34679	1099.79688	1767.61816	55.11469	977.44989	1709.37415	-44.68481	907.84827	1749.31677	1.46931	871.63464	1740.85425	-73.37730	822.23511	1346.25183	211.85280	1417.48914	1255.68799	251.47365	1220.41626	1242.08081	242.82922	1098.77856	1222.22656	226.77229	979.84070	1250.23450	165.03210	840.64899	1210.53210	219.59537	842.52795	1206.85059	182.29243	766.53619	1591.11511	129.88466	967.71198	1369.34399	132.84418	980.17700	1562.91724	288.52057	995.62854	1394.92310	283.00839	999.17096	1636.59924	213.17569	654.80725	1611.99792	229.91704	491.21985	1593.80627	288.59964	240.17082	1539.73987	299.95834	69.51595	1493.50818	339.89990	57.18459	1538.68823	155.17453	40.57393	1298.09985	122.45065	651.66577	1321.81140	77.67252	532.82501	1323.52966	87.73495	270.98209	1362.84131	74.19443	84.62408	1412.55762	105.64391	56.32236	1355.36255	-79.42588	58.46699	1507.35034	235.77094	1708.62952															 
171	1.700	1554.60840	122.98631	1670.80908	1424.07031	139.47723	1656.47046	1572.46875	255.58000	1617.23596	1444.07825	270.74460	1608.64453	1512.90955	264.27243	1458.17310	1491.23914	302.07059	1130.15186	1503.32422	156.70665	1379.11072	1502.45593	120.04739	1202.54578	1429.30481	342.18646	1291.19617	1667.76086	199.95943	1406.84558	1743.69531	166.77664	1209.26343	1758.88110	139.37123	1099.14551	1766.29871	48.92545	977.71613	1708.77148	-52.91544	910.70593	1746.45435	-6.16153	872.78632	1738.80701	-81.82815	824.61389	1345.92395	206.46255	1416.79712	1255.65894	247.18423	1219.74255	1241.96704	238.34517	1098.15686	1222.03845	222.74370	979.14093	1249.98230	161.17508	839.79919	1210.41479	215.75728	841.79773	1206.73779	178.48750	765.81018	1591.27527	124.31640	967.01099	1369.58154	127.14910	979.41040	1562.95642	282.88025	995.15527	1394.95398	277.20367	998.66583	1636.47278	208.80341	654.25269	1611.84998	226.29823	490.69308	1593.62427	286.32590	239.89893	1539.27124	299.25677	69.52289	1493.14111	339.59274	57.44641	1538.14819	155.03314	40.44102	1297.53503	118.45922	650.64575	1322.05286	73.57948	531.82556	1323.37793	75.72432	270.15515	1362.29370	56.48644	84.16324	1411.65247	87.58540	55.14878	1356.98804	-98.10524	61.56533	1506.95044	229.85503	1708.12012															 
172	1.710	1553.97131	116.98018	1670.15967	1423.45569	133.66452	1655.81653	1571.96826	249.48779	1616.69312	1443.65930	264.92645	1608.04541	1512.55298	258.50296	1457.63831	1491.20715	296.31033	1129.54382	1502.96289	150.93915	1378.56641	1502.29932	114.26692	1201.96912	1429.25439	336.52875	1290.46094	1667.43713	194.33830	1406.42310	1742.98352	161.87653	1208.60083	1757.81494	134.49925	1098.40039	1764.51819	43.02831	977.73218	1707.98657	-60.86323	913.41382	1743.41565	-13.65316	873.85876	1736.59790	-90.10374	826.85553	1345.48962	200.98798	1416.00647	1255.29565	242.35326	1219.02600	1241.77722	233.96014	1097.34656	1221.86682	218.48167	978.32141	1249.66077	156.97734	838.96198	1210.27844	212.05583	840.94379	1206.42554	174.82654	764.95319	1591.32800	118.83452	966.11359	1369.67615	121.41197	978.56525	1562.94226	277.21329	994.59222	1394.89539	271.46173	998.11774	1636.31909	204.36140	653.75818	1611.59485	222.58202	490.14969	1593.37939	284.20358	239.81909	1538.91882	298.88480	69.62437	1492.76550	339.32950	57.68481	1537.90454	154.80067	40.37608	1297.09692	114.14498	649.55231	1322.40540	69.38039	530.89465	1323.17151	64.40282	269.49002	1361.74329	39.53339	84.01152	1410.70300	70.05901	54.02848	1358.26392	-115.92496	65.57667	1506.46301	223.91986	1707.54150															 
